HIERARCHY
ROOT Hips
{
	OFFSET 0.000000 0.000000 0.000000
	CHANNELS 6 Xposition Yposition Zposition Zrotation Yrotation Xrotation 
	JOINT LHipJoint
	{
		OFFSET 0.000000 0.000000 0.000000
		CHANNELS 3 Zrotation Yrotation Xrotation
		JOINT LeftUpLeg
		{
			OFFSET 1.363060 -1.794630 0.839290
			CHANNELS 3 Zrotation Yrotation Xrotation
			JOINT LeftLeg
			{
				OFFSET 2.448110 -6.726130 0.000000
				CHANNELS 3 Zrotation Yrotation Xrotation
				JOINT LeftFoot
				{
					OFFSET 2.562200 -7.039590 0.000000
					CHANNELS 3 Zrotation Yrotation Xrotation
					JOINT LeftToeBase
					{
						OFFSET 0.157640 -0.433110 2.322550
						CHANNELS 3 Zrotation Yrotation Xrotation
						End Site
						{
							OFFSET 0.000000 0.000000 0.000000
						}
					}
				}
			}
		}
	}
	JOINT RHipJoint
	{
		OFFSET 0.000000 0.000000 0.000000
		CHANNELS 3 Zrotation Yrotation Xrotation
		JOINT RightUpLeg
		{
			OFFSET -1.305520 -1.794630 0.839290
			CHANNELS 3 Zrotation Yrotation Xrotation
			JOINT RightLeg
			{
				OFFSET -2.542530 -6.985550 0.000000
				CHANNELS 3 Zrotation Yrotation Xrotation
				JOINT RightFoot
				{
					OFFSET -2.568260 -7.056230 0.000000
					CHANNELS 3 Zrotation Yrotation Xrotation
					JOINT RightToeBase
					{
						OFFSET -0.164730 -0.452590 2.363150
						CHANNELS 3 Zrotation Yrotation Xrotation
						End Site
						{
							OFFSET 0.000000 0.000000 0.000000
						}
					}
				}
			}
		}
	}
}
MOTION
Frames: 22
Frame Time: 0.008333
19.939872 16.850014 1.430627 162.659769 -85.805601 -111.407595 -8.612680 -1.102383 2.389181 -8.386238 -7.227463 -58.290760 -2.659652 -1.633449 11.486586 3.406786 14.025685 -8.470298 1.008400 0.000000 -39.629200 8.389948 0.949539 4.228794 1.209863 7.629675 -59.207192 2.478960 1.379302 9.798491 -2.414713 -8.111713 -6.014732 -1.553000 0.000000 -63.575901
19.920051 16.790247 1.430121 161.913303 -85.810270 -109.937501 -8.533493 -1.077371 2.496873 -8.267349 -7.695504 -60.081902 -2.655728 -1.449631 13.511587 3.542692 14.038040 -9.609730 0.724200 0.000000 -39.546800 8.361313 0.959049 4.408365 0.718576 8.056193 -61.210168 2.374590 1.129511 12.182457 -2.598167 -8.302823 -7.292478 -1.370600 0.000001 -62.795100
19.899217 16.724856 1.429458 160.910017 -85.824466 -108.240279 -8.455664 -1.049076 2.603383 -8.154213 -8.167743 -61.909345 -2.649943 -1.242123 15.678625 3.674878 14.005430 -10.822631 0.412299 0.000000 -39.340000 8.336573 0.977493 4.580924 0.201341 8.454669 -63.244131 2.255142 0.856795 14.722475 -2.791077 -8.507632 -8.630570 -1.166100 -0.000001 -61.911400
19.877479 16.653792 1.428782 159.639661 -85.849246 -106.312412 -8.380777 -1.019753 2.707851 -8.041022 -8.644295 -63.758779 -2.638863 -1.011608 17.977023 3.803002 13.935911 -12.099297 0.077500 -0.000000 -38.991400 8.315471 1.007163 4.742262 -0.333553 8.818358 -65.288973 2.120647 0.563528 17.402763 -2.992142 -8.732148 -10.013072 -0.940901 0.000000 -60.946000
19.854871 16.577004 1.428111 158.071367 -85.882612 -104.125834 -8.310136 -0.991064 2.811601 -7.922000 -9.129534 -65.619008 -2.618442 -0.760357 20.391463 3.928247 13.845301 -13.424855 -0.274200 0.000000 -38.496900 8.298105 1.050099 4.890350 -0.880517 9.140637 -67.331200 1.971441 0.252622 20.207467 -3.199655 -8.980871 -11.424511 -0.696300 0.000000 -59.922200
19.831162 16.494552 1.427529 156.184709 -85.924103 -101.662893 -8.244905 -0.965467 2.914282 -7.792264 -9.623664 -67.476426 -2.585012 -0.491383 22.904534 4.051395 13.748761 -14.781472 -0.636500 -0.000000 -37.866000 8.284308 1.107709 5.022778 -1.431389 9.417120 -69.352834 1.808518 -0.071896 23.114614 -3.411753 -9.258444 -12.849402 -0.433400 0.000000 -58.863200
19.806484 16.406513 1.427048 153.948356 -85.970818 -98.892835 -8.186114 -0.944808 3.016882 -7.648723 -10.128305 -69.320941 -2.535228 -0.208646 25.496671 4.173981 13.664669 -16.147847 -1.003600 -0.000000 -37.124100 8.273930 1.180666 5.139191 -1.980500 9.644522 -71.340583 1.633308 -0.405606 26.101827 -3.626241 -9.567057 -14.274809 -0.153200 0.000001 -57.788700
19.780715 16.313129 1.426667 151.338762 -86.020568 -95.792930 -8.134124 -0.931146 3.119149 -7.489860 -10.642278 -71.141104 -2.466698 0.083393 28.147396 4.297067 13.608894 -17.503076 -1.370600 0.000000 -36.304700 8.266925 1.268810 5.239329 -2.520441 9.821600 -73.279478 1.447977 -0.743635 29.142899 -3.840926 -9.907586 -15.690867 0.144100 -0.000001 -56.712300
19.753743 16.214710 1.426395 148.335924 -86.070075 -92.343763 -8.088994 -0.926128 3.220865 -7.316066 -11.163613 -72.927524 -2.377999 0.380205 30.836764 4.421570 13.595585 -18.826930 -1.734200 0.000000 -35.448600 8.263221 1.371305 5.323923 -3.045681 9.948611 -75.156802 1.254959 -1.081365 32.212499 -4.053634 -10.278770 -17.091784 0.458800 -0.000000 -55.640500
19.725386 16.111496 1.426156 144.938622 -86.113754 -88.540858 -8.051297 -0.930535 3.322826 -7.129787 -11.690202 -74.674800 -2.268801 0.677589 33.547035 4.548148 13.635628 -20.101976 -2.092200 -0.000001 -34.601500 8.262393 1.485976 5.395771 -3.551968 10.027550 -76.964651 1.057198 -1.414332 35.284960 -4.262173 -10.676316 -18.475458 0.791500 0.000001 -54.573900
19.695425 16.004187 1.426013 141.151227 -86.151774 -84.394895 -8.019767 -0.946070 3.421269 -6.935016 -12.213409 -76.363947 -2.140341 0.971567 36.260351 4.675587 13.730807 -21.319148 -2.444900 0.000000 -33.794400 8.264821 1.611279 5.453216 -4.030599 10.062090 -78.682486 0.857377 -1.739705 38.341465 -4.464900 -11.096770 -19.846154 1.144500 -0.000000 -53.499900
19.663913 15.893087 1.425863 137.026366 -86.176740 -79.953632 -7.994498 -0.971980 3.517887 -6.736062 -12.730146 -77.995850 -1.994413 1.259203 38.962748 4.803634 13.883288 -22.469152 -2.791900 0.000000 -33.066700 8.270516 1.743818 5.501402 -4.480099 10.056929 -80.310358 0.658509 -2.054330 41.357655 -4.659706 -11.531671 -21.204380 1.517700 0.000000 -52.421700
19.630527 15.778868 1.425723 132.626001 -86.187767 -75.281151 -7.974386 -1.008113 3.610629 -6.538001 -13.232189 -79.559367 -1.833929 1.538216 41.642248 4.930355 14.086132 -23.552712 -3.134700 0.000000 -32.440500 8.280190 1.881119 5.541044 -4.894505 10.017711 -81.837241 0.462955 -2.356888 44.318421 -4.845233 -11.974837 -22.554473 1.911999 -0.000000 -51.334900
19.595013 15.662247 1.425582 128.035846 -86.182525 -70.467378 -7.959005 -1.053720 3.698423 -6.346201 -13.711869 -81.045239 -1.662332 1.807178 44.287896 5.053658 14.329232 -24.574907 -3.474900 0.000000 -31.931400 8.293997 2.020480 5.573585 -5.269447 9.950318 -83.255456 0.272569 -2.646636 47.210335 -5.020203 -12.419771 -23.897465 2.326900 0.000000 -50.248600
19.557348 15.543835 1.425472 123.359883 -86.161086 -65.615556 -7.947846 -1.107268 3.780510 -6.165506 -14.161407 -82.445527 -1.483353 2.065267 46.890701 5.171206 14.599298 -25.544453 -3.813800 0.000000 -31.547800 8.312901 2.159418 5.600510 -5.600901 9.860679 -84.559335 0.088665 -2.923352 50.022155 -5.183482 -12.860471 -25.230567 2.760100 0.000000 -49.183099
19.517240 15.424473 1.425418 118.694125 -86.124424 -60.825502 -7.940651 -1.167132 3.856423 -6.000311 -14.574186 -83.751382 -1.300605 2.312196 49.442260 5.280859 14.882285 -26.473044 -4.152600 -0.000000 -31.292100 8.337454 2.295734 5.622718 -5.884818 9.754051 -85.743976 -0.088153 -3.187365 52.745589 -5.334266 -13.292833 -26.546240 3.208100 0.000000 -48.173200
19.461002 15.292239 1.447557 100.704269 -86.313847 -42.415656 -7.946677 -1.269339 4.277563 -4.965527 -15.538943 -85.722280 -0.985602 2.452754 51.973040 5.391281 15.185070 -27.110164 -4.384400 0.000000 -31.576401 8.381323 2.310304 5.676128 -5.548858 9.298002 -87.162495 -0.158897 -3.527772 55.329440 -5.529592 -13.787424 -27.972528 3.714500 -0.000000 -47.018200
19.415722 15.173186 1.447796 96.490673 -86.211675 -38.185866 -7.934931 -1.324024 4.340182 -4.834519 -15.848947 -86.822664 -0.806809 2.675114 54.397116 5.479584 15.450791 -27.991360 -4.722500 0.000000 -31.587700 8.429135 2.449323 5.689858 -5.723198 9.179019 -88.100622 -0.325625 -3.771705 57.859877 -5.653416 -14.194262 -29.210026 4.177000 0.000000 -46.265400
19.367750 15.055529 1.448261 92.563955 -86.105283 -34.299020 -7.929913 -1.379423 4.398466 -4.727110 -16.112922 -87.809013 -0.632280 2.887268 56.747719 5.556411 15.697529 -28.861098 -5.061100 0.000001 -31.720800 8.481623 2.580493 5.699830 -5.841157 9.052279 -88.912516 -0.486001 -4.003125 60.281492 -5.763644 -14.588461 -30.383304 4.634300 0.000000 -45.721200
19.317652 14.940020 1.448995 88.898572 -85.997785 -30.730056 -7.931809 -1.434454 4.453179 -4.643275 -16.331639 -88.677898 -0.463096 3.089140 59.018137 5.621997 15.922423 -29.721033 -5.398900 0.000000 -31.978400 8.538816 2.702081 5.705534 -5.899747 8.918520 -89.598535 -0.640434 -4.222503 62.589286 -5.860423 -14.970089 -31.476437 5.079599 0.000000 -45.427900
19.265073 14.827382 1.450018 85.470792 -85.890259 -27.454367 -7.941033 -1.487953 4.505748 -4.583863 -16.508292 -89.425782 -0.299925 3.280197 61.200223 5.677290 16.126591 -30.568575 -5.733900 -0.000001 -32.354700 8.600621 2.812193 5.706979 -5.898299 8.776729 -90.158750 -0.789291 -4.429888 64.777627 -5.944289 -15.339855 -32.476429 5.506700 -0.000001 -45.410600
19.210581 14.718353 1.451339 82.242916 -85.783609 -24.434240 -7.957445 -1.539059 4.556862 -4.548220 -16.647032 -90.051867 -0.142520 3.459908 63.288245 5.723692 16.315521 -31.395714 -6.063800 -0.000000 -32.849000 8.666689 2.909719 5.703133 -5.835560 8.625854 -90.594700 -0.932408 -4.625560 66.842571 -6.016053 -15.697573 -33.377459 5.911700 0.000000 -45.672600
